<?xml version="1.0" encoding="iso-8859-1"?>
<!-- Generator: Adobe Illustrator 19.0.0, SVG Export Plug-In . SVG Version: 6.00 Build 0)  -->
<svg version="1.1" id="Capa_1" xmlns="http://www.w3.org/2000/svg" xmlns:xlink="http://www.w3.org/1999/xlink" x="0px" y="0px"
	 viewBox="0 0 491.52 491.52" style="enable-background:new 0 0 491.52 491.52;" xml:space="preserve">
<circle style="fill:#EA8953;" cx="245.76" cy="245.76" r="245.76"/>
<path style="opacity:0.1;enable-background:new    ;" d="M258.816,113.756c-70.502,0-127.693,57.19-127.693,127.744
	c0,21.197,5.222,41.165,14.387,58.778c-7.322,17.562-20.275,44.186-39.066,66.97c-1.894,2.253-1.843,5.12-0.563,7.27
	c0.512,0.973,1.331,1.792,2.304,2.304l113.51,113.51c7.92,0.77,15.943,1.188,24.064,1.188c120.729,0,221.052-87.078,241.769-201.839
	L351.59,153.743C328.346,129.116,295.373,113.756,258.816,113.756z"/>
<path style="fill:#EBF0F3;" d="M258.834,113.765c-70.542,0-127.727,57.185-127.727,127.727c0,21.226,5.258,41.197,14.419,58.81
	c-7.351,17.548-20.316,44.174-39.093,66.925c-3.751,4.543,0.176,11.349,5.997,10.447c19.409-3.011,51.772-10.335,79.522-27.517
	c19.471,12.01,42.326,19.06,66.882,19.06c70.54,0,127.726-57.184,127.726-127.726C386.56,170.95,329.374,113.765,258.834,113.765z"
	/>
<path style="fill:#27A2DB;" d="M258.834,129.383c-61.817,0-112.109,50.292-112.109,112.108c0,61.817,50.292,112.108,112.109,112.108
	c61.816,0,112.108-50.291,112.108-112.108C370.941,179.675,320.65,129.383,258.834,129.383z"/>
<path style="fill:#2D93BA;" d="M258.833,129.383c-61.817,0-112.108,50.292-112.108,112.108c0,61.817,50.291,112.109,112.108,112.109
	s112.108-50.292,112.108-112.109C370.941,179.675,320.65,129.383,258.833,129.383z M156.568,246.29h37.035
	c0.361,15.392,2.449,29.884,5.948,42.952h-31.353C161.356,276.309,157.287,261.737,156.568,246.29z M263.633,184.141v-44.712
	c17.181,2.717,32.167,19.784,41.344,44.712H263.633z M308.082,193.74c3.717,12.933,5.928,27.505,6.319,42.951h-50.768V193.74
	H308.082z M254.034,139.429v44.712H212.69C221.867,159.214,236.853,142.146,254.034,139.429z M254.034,193.74v42.951h-50.768
	c0.392-15.446,2.602-30.018,6.319-42.951H254.034z M193.603,236.691h-37.035c0.72-15.446,4.789-30.018,11.631-42.951h31.353
	C196.052,206.808,193.964,221.3,193.603,236.691z M203.266,246.29h50.768v42.952h-44.449
	C205.868,276.309,203.657,261.737,203.266,246.29z M254.034,298.841v44.712c-17.181-2.717-32.167-19.784-41.344-44.712H254.034z
	 M263.633,343.553v-44.712h41.344C295.8,323.769,280.814,340.836,263.633,343.553z M263.633,289.242V246.29h50.768
	c-0.391,15.447-2.602,30.019-6.319,42.952H263.633z M324.064,246.29h37.035c-0.72,15.447-4.789,30.019-11.631,42.952h-31.353
	C321.615,276.175,323.703,261.682,324.064,246.29z M324.064,236.691c-0.361-15.391-2.449-29.884-5.948-42.951h31.353
	c6.842,12.933,10.911,27.505,11.631,42.951H324.064z M343.755,184.141h-28.549c-5.568-16.353-13.483-29.93-23.013-39.476
	C313.343,151.975,331.419,165.932,343.755,184.141z M225.474,144.666c-9.53,9.546-17.445,23.122-23.013,39.476h-28.549
	C186.248,165.932,204.324,151.975,225.474,144.666z M173.912,298.841h28.549c5.568,16.353,13.483,29.93,23.013,39.476
	C204.324,331.007,186.248,317.05,173.912,298.841z M292.193,338.317c9.53-9.546,17.445-23.122,23.013-39.476h28.549
	C331.419,317.05,313.343,331.007,292.193,338.317z"/>
<g>
</g>
<g>
</g>
<g>
</g>
<g>
</g>
<g>
</g>
<g>
</g>
<g>
</g>
<g>
</g>
<g>
</g>
<g>
</g>
<g>
</g>
<g>
</g>
<g>
</g>
<g>
</g>
<g>
</g>
</svg>
